<svg width="18" height="10" viewBox="0 0 18 10" fill="none" xmlns="http://www.w3.org/2000/svg">
<path d="M1.36163 9.53448C1.66589 9.83264 2.07748 10 2.50649 10C2.93551 10 3.3471 9.83264 3.65136 9.53448L9.48124 3.86739L15.2299 9.53448C15.5342 9.83264 15.9458 10 16.3748 10C16.8038 10 17.2154 9.83264 17.5196 9.53448C17.6719 9.38566 17.7927 9.2086 17.8751 9.01352C17.9576 8.81844 18 8.60919 18 8.39786C18 8.18652 17.9576 7.97728 17.8751 7.7822C17.7927 7.58712 17.6719 7.41006 17.5196 7.26124L10.6342 0.473535C10.4833 0.323488 10.3036 0.204393 10.1058 0.123119C9.90787 0.0418437 9.69561 -7.20957e-07 9.48124 -7.39569e-07C9.26686 -7.5818e-07 9.0546 0.0418436 8.85671 0.123119C8.65882 0.204393 8.47922 0.323487 8.32825 0.473535L1.36163 7.26124C1.20942 7.41006 1.08861 7.58712 1.00617 7.7822C0.923721 7.97728 0.881273 8.18652 0.881273 8.39786C0.881273 8.60919 0.923721 8.81843 1.00617 9.01352C1.08861 9.2086 1.20942 9.38565 1.36163 9.53448Z" fill="white"/>
</svg>
