<svg width="31" height="29" viewBox="0 0 31 29" fill="none" xmlns="http://www.w3.org/2000/svg">
<rect opacity="0.2" x="0.833496" width="29.901" height="29" rx="5" fill="white"/>
<path d="M22.4031 6.979C22.1311 6.979 21.8651 7.05994 21.6389 7.21157C21.4127 7.36321 21.2365 7.57873 21.1323 7.8309C21.0282 8.08306 21.001 8.36053 21.0541 8.62822C21.1071 8.89592 21.2381 9.14181 21.4305 9.33481C21.6229 9.5278 21.8679 9.65924 22.1348 9.71248C22.4016 9.76573 22.6781 9.7384 22.9295 9.63395C23.1808 9.5295 23.3956 9.35263 23.5467 9.12569C23.6979 8.89875 23.7785 8.63194 23.7785 8.359C23.7785 7.993 23.6336 7.64199 23.3757 7.38319C23.1177 7.12439 22.7679 6.979 22.4031 6.979ZM27.6756 9.762C27.6533 8.80784 27.4752 7.86381 27.1484 6.9675C26.8569 6.2006 26.4033 5.50617 25.8188 4.932C25.2512 4.34254 24.5575 3.8903 23.79 3.6095C22.899 3.27158 21.957 3.08879 21.0047 3.069C19.7897 3 19.4 3 16.2824 3C13.1647 3 12.775 3 11.56 3.069C10.6077 3.08879 9.66571 3.27158 8.77472 3.6095C8.00868 3.89315 7.31552 4.34499 6.74594 4.932C6.15842 5.50145 5.70768 6.19751 5.4278 6.9675C5.091 7.86144 4.90881 8.80653 4.88908 9.762C4.82031 10.981 4.82031 11.372 4.82031 14.5C4.82031 17.628 4.82031 18.019 4.88908 19.238C4.90881 20.1935 5.091 21.1386 5.4278 22.0325C5.70768 22.8025 6.15842 23.4985 6.74594 24.068C7.31552 24.655 8.00868 25.1069 8.77472 25.3905C9.66571 25.7284 10.6077 25.9112 11.56 25.931C12.775 26 13.1647 26 16.2824 26C19.4 26 19.7897 26 21.0047 25.931C21.957 25.9112 22.899 25.7284 23.79 25.3905C24.5575 25.1097 25.2512 24.6575 25.8188 24.068C26.4059 23.496 26.8599 22.8009 27.1484 22.0325C27.4752 21.1362 27.6533 20.1922 27.6756 19.238C27.6756 18.019 27.7444 17.628 27.7444 14.5C27.7444 11.372 27.7444 10.981 27.6756 9.762ZM25.6125 19.1C25.6041 19.83 25.4723 20.5533 25.2228 21.239C25.0397 21.7395 24.7458 22.1917 24.3631 22.5615C23.9913 22.9416 23.5415 23.2359 23.045 23.424C22.3615 23.6744 21.6406 23.8066 20.913 23.815C19.7668 23.8725 19.3427 23.884 16.3282 23.884C13.3137 23.884 12.8896 23.884 11.7434 23.815C10.9879 23.8292 10.2357 23.7125 9.51975 23.47C9.04497 23.2723 8.6158 22.9787 8.25893 22.6075C7.87849 22.2381 7.58822 21.7855 7.41074 21.285C7.1309 20.5894 6.97569 19.8497 6.95225 19.1C6.95225 17.95 6.88348 17.5245 6.88348 14.5C6.88348 11.4755 6.88348 11.05 6.95225 9.9C6.95739 9.15371 7.09318 8.41414 7.35343 7.715C7.55521 7.2296 7.86494 6.79691 8.25893 6.45C8.60716 6.05459 9.03753 5.74056 9.51975 5.53C10.2184 5.27705 10.9548 5.14484 11.6975 5.139C12.8437 5.139 13.2678 5.07 16.2824 5.07C19.2969 5.07 19.721 5.07 20.8672 5.139C21.5948 5.14737 22.3156 5.27958 22.9991 5.53C23.52 5.72395 23.9875 6.03927 24.3631 6.45C24.7387 6.80326 25.0322 7.23514 25.2228 7.715C25.4775 8.41527 25.6094 9.15455 25.6125 9.9C25.6698 11.05 25.6812 11.4755 25.6812 14.5C25.6812 17.5245 25.6698 17.95 25.6125 19.1ZM16.2824 8.6005C15.1199 8.60277 13.9842 8.9507 13.0187 9.60033C12.0533 10.25 11.3014 11.1721 10.8581 12.2503C10.4148 13.3285 10.3 14.5143 10.5282 15.658C10.7564 16.8016 11.3173 17.8517 12.1401 18.6756C12.9629 19.4995 14.0106 20.0603 15.1509 20.287C16.2912 20.5137 17.4729 20.3962 18.5467 19.9493C19.6204 19.5025 20.5381 18.7463 21.1837 17.7764C21.8293 16.8065 22.1738 15.6663 22.1739 14.5C22.1754 13.7239 22.0239 12.9551 21.7283 12.2379C21.4326 11.5207 20.9985 10.8692 20.451 10.321C19.9034 9.77269 19.2533 9.33843 18.5379 9.04317C17.8225 8.74791 17.0559 8.59747 16.2824 8.6005ZM16.2824 18.3295C15.5275 18.3295 14.7895 18.1049 14.1618 17.6841C13.5341 17.2633 13.0449 16.6652 12.756 15.9655C12.4671 15.2657 12.3916 14.4958 12.5388 13.7529C12.6861 13.0101 13.0496 12.3277 13.5834 11.7921C14.1172 11.2566 14.7973 10.8918 15.5377 10.7441C16.2781 10.5963 17.0456 10.6722 17.743 10.962C18.4404 11.2518 19.0366 11.7427 19.456 12.3724C19.8754 13.0022 20.0992 13.7426 20.0992 14.5C20.0992 15.0029 20.0005 15.5009 19.8087 15.9655C19.6169 16.4301 19.3357 16.8523 18.9813 17.2079C18.6269 17.5635 18.2061 17.8455 17.743 18.038C17.2799 18.2304 16.7836 18.3295 16.2824 18.3295Z" fill="white"/>
</svg>
