<svg width="24" height="22" viewBox="0 0 24 22" fill="none" xmlns="http://www.w3.org/2000/svg">
<path d="M0.655273 2.55556C0.655273 1.8148 0.913435 1.20369 1.42974 0.722222C1.94604 0.240733 2.61725 0 3.44334 0C4.25469 0 4.91112 0.237022 5.41269 0.711111C5.92899 1.2 6.18715 1.83702 6.18715 2.62222C6.18715 3.33333 5.93638 3.92591 5.43481 4.4C4.91851 4.88889 4.23993 5.13333 3.39908 5.13333H3.37696C2.56561 5.13333 1.90917 4.88889 1.40761 4.4C0.906044 3.91111 0.655273 3.29629 0.655273 2.55556ZM0.942931 22V7.15556H5.85524V22H0.942931ZM8.57692 22H13.4892V13.7111C13.4892 13.1926 13.5482 12.7926 13.6662 12.5111C13.8728 12.0074 14.1862 11.5815 14.6067 11.2333C15.0271 10.8852 15.5545 10.7111 16.1888 10.7111C17.841 10.7111 18.6671 11.8296 18.6671 14.0667V22H23.5794V13.4889C23.5794 11.2963 23.0631 9.63333 22.0304 8.5C20.9978 7.36667 19.6333 6.8 17.9369 6.8C16.0339 6.8 14.5513 7.62222 13.4892 9.26667V9.31111H13.4671L13.4892 9.26667V7.15556H8.57692C8.60642 7.62962 8.62117 9.10369 8.62117 11.5778C8.62117 14.0518 8.60642 17.5259 8.57692 22Z" fill="white"/>
</svg>
