<svg width="31" height="29" viewBox="0 0 31 29" fill="none" xmlns="http://www.w3.org/2000/svg">
<rect opacity="0.2" x="0.668457" width="29.901" height="29" rx="5" fill="white"/>
<path d="M4.65527 6.55556C4.65527 5.8148 4.91344 5.20369 5.42974 4.72222C5.94604 4.24073 6.61725 4 7.44334 4C8.25469 4 8.91112 4.23702 9.41269 4.71111C9.92899 5.2 10.1871 5.83702 10.1871 6.62222C10.1871 7.33333 9.93638 7.92591 9.43481 8.4C8.91851 8.88889 8.23993 9.13333 7.39908 9.13333H7.37696C6.56561 9.13333 5.90917 8.88889 5.40761 8.4C4.90604 7.91111 4.65527 7.29629 4.65527 6.55556ZM4.94293 26V11.1556H9.85524V26H4.94293ZM12.5769 26H17.4892V17.7111C17.4892 17.1926 17.5482 16.7926 17.6662 16.5111C17.8728 16.0074 18.1862 15.5815 18.6067 15.2333C19.0271 14.8852 19.5545 14.7111 20.1888 14.7111C21.841 14.7111 22.6671 15.8296 22.6671 18.0667V26H27.5794V17.4889C27.5794 15.2963 27.0631 13.6333 26.0304 12.5C24.9978 11.3667 23.6333 10.8 21.9369 10.8C20.0339 10.8 18.5513 11.6222 17.4892 13.2667V13.3111H17.4671L17.4892 13.2667V11.1556H12.5769C12.6064 11.6296 12.6212 13.1037 12.6212 15.5778C12.6212 18.0518 12.6064 21.5259 12.5769 26Z" fill="white"/>
</svg>
