<svg width="51" height="53" viewBox="0 0 51 53" fill="none" xmlns="http://www.w3.org/2000/svg">
<path fill-rule="evenodd" clip-rule="evenodd" d="M25.5576 0.625C19.0644 0.625 13.1477 2.76975 9.64735 4.52206C9.3311 4.68019 9.03642 4.83544 8.76185 4.98494C8.21848 5.28106 7.7556 5.55706 7.3876 5.8L11.3695 11.6621L13.244 12.4082C20.5695 16.104 30.3934 16.104 37.7203 12.4082L39.8478 11.3042L43.614 5.8C42.8338 5.29112 42.0224 4.83165 41.1847 4.42431C37.703 2.69069 31.9286 0.625 25.5576 0.625ZM16.2958 7.2605C14.8858 6.99665 13.4931 6.64716 12.1256 6.214C15.4045 4.75781 20.292 3.2125 25.5562 3.2125C29.2031 3.2125 32.6517 3.95425 35.5037 4.89438C32.1615 5.36444 28.595 6.16225 25.1968 7.14406C22.523 7.91744 19.3979 7.83406 16.2958 7.2605ZM39.2383 14.54L38.8861 14.7183C30.826 18.7835 20.1368 18.7835 12.0767 14.7183L11.7432 14.5486C-0.363396 27.8326 -9.60652 52.3707 25.5576 52.3707C60.7189 52.3707 51.25 27.374 39.2383 14.54ZM24.0626 26.5C23.3001 26.5 22.5688 26.8029 22.0297 27.3421C21.4905 27.8812 21.1876 28.6125 21.1876 29.375C21.1876 30.1375 21.4905 30.8688 22.0297 31.4079C22.5688 31.9471 23.3001 32.25 24.0626 32.25V26.5ZM26.9376 23.625V22.1875H24.0626V23.625C22.5376 23.625 21.0751 24.2308 19.9967 25.3091C18.9184 26.3875 18.3126 27.85 18.3126 29.375C18.3126 30.9 18.9184 32.3625 19.9967 33.4409C21.0751 34.5192 22.5376 35.125 24.0626 35.125V40.875C23.468 40.8752 22.888 40.691 22.4025 40.3478C21.917 40.0046 21.5498 39.5193 21.3515 38.9588C21.2245 38.5993 20.9599 38.3049 20.616 38.1405C20.272 37.976 19.8767 37.955 19.5172 38.0819C19.1577 38.2089 18.8634 38.4735 18.6989 38.8175C18.5345 39.1614 18.5134 39.5567 18.6404 39.9162C19.0369 41.0374 19.7712 42.0081 20.7423 42.6947C21.7133 43.3813 22.8733 43.75 24.0626 43.75V45.1875H26.9376V43.75C28.4626 43.75 29.9251 43.1442 31.0035 42.0659C32.0818 40.9875 32.6876 39.525 32.6876 38C32.6876 36.475 32.0818 35.0125 31.0035 33.9341C29.9251 32.8558 28.4626 32.25 26.9376 32.25V26.5C28.1882 26.5 29.2534 27.2978 29.6502 28.4162C29.709 28.5992 29.804 28.7685 29.9294 28.9141C30.0549 29.0597 30.2082 29.1787 30.3805 29.2641C30.5527 29.3494 30.7403 29.3993 30.9322 29.4109C31.124 29.4224 31.3162 29.3954 31.4975 29.3313C31.6787 29.2673 31.8453 29.1676 31.9873 29.0381C32.1293 28.9085 32.2439 28.7519 32.3243 28.5773C32.4047 28.4027 32.4493 28.2138 32.4554 28.0216C32.4615 27.8295 32.429 27.6382 32.3599 27.4588C31.9633 26.3376 31.229 25.3669 30.2579 24.6803C29.2869 23.9937 28.1269 23.625 26.9376 23.625ZM26.9376 35.125V40.875C27.7001 40.875 28.4314 40.5721 28.9705 40.0329C29.5097 39.4938 29.8126 38.7625 29.8126 38C29.8126 37.2375 29.5097 36.5062 28.9705 35.9671C28.4314 35.4279 27.7001 35.125 26.9376 35.125Z" fill="black"/>
</svg>
