<svg width="57" height="56" viewBox="0 0 57 56" fill="none" xmlns="http://www.w3.org/2000/svg">
<path d="M55.6656 38.6437C55.9448 39.095 56.0207 39.6307 55.8768 40.1339C55.733 40.6372 55.381 41.067 54.8978 41.3295L29.481 55.128C29.1609 55.306 28.7949 55.4 28.422 55.4C28.049 55.4 27.6831 55.306 27.3629 55.128L1.94611 41.3295C1.50716 41.0479 1.19846 40.6226 1.08161 40.1385C0.964769 39.6544 1.04838 39.1471 1.31576 38.7179C1.58314 38.2886 2.01462 37.969 2.52407 37.8228C3.03352 37.6766 3.58348 37.7146 4.06418 37.9291L28.422 51.1363L52.7798 37.9291C53.2647 37.6694 53.8403 37.5987 54.381 37.7326C54.9217 37.8665 55.3835 38.194 55.6656 38.6437ZM52.7798 26.1018L28.422 39.309L4.06418 26.1018C3.58348 25.8873 3.03352 25.8493 2.52407 25.9955C2.01462 26.1417 1.58314 26.4613 1.31576 26.8906C1.04838 27.3198 0.964769 27.8271 1.08161 28.3112C1.19846 28.7953 1.50716 29.2206 1.94611 29.5022L27.3629 43.3007C27.6831 43.4787 28.049 43.5727 28.422 43.5727C28.7949 43.5727 29.1609 43.4787 29.481 43.3007L54.8978 29.5022C55.1612 29.3846 55.3956 29.2177 55.5863 29.0117C55.7769 28.8058 55.9198 28.5654 56.0059 28.3057C56.0919 28.0459 56.1193 27.7724 56.0864 27.5023C56.0534 27.2322 55.9607 26.9714 55.8143 26.7362C55.6678 26.501 55.4706 26.2966 55.2351 26.1358C54.9997 25.9749 54.731 25.8611 54.446 25.8015C54.1611 25.742 53.8659 25.7379 53.5792 25.7896C53.2924 25.8413 53.0202 25.9476 52.7798 26.1018ZM1.94611 17.6749L27.3629 31.4734C27.6831 31.6514 28.049 31.7454 28.422 31.7454C28.7949 31.7454 29.1609 31.6514 29.481 31.4734L54.8978 17.6749C55.2163 17.501 55.4804 17.2526 55.664 16.9543C55.8475 16.6561 55.944 16.3184 55.944 15.9747C55.944 15.631 55.8475 15.2933 55.664 14.9951C55.4804 14.6969 55.2163 14.4485 54.8978 14.2745L29.481 0.476041C29.1618 0.295457 28.7955 0.199951 28.422 0.199951C28.0484 0.199951 27.6821 0.295457 27.3629 0.476041L1.94611 14.2745C1.6276 14.4485 1.36349 14.6969 1.17997 14.9951C0.996451 15.2933 0.899902 15.631 0.899902 15.9747C0.899902 16.3184 0.996451 16.6561 1.17997 16.9543C1.36349 17.2526 1.6276 17.501 1.94611 17.6749Z" fill="black"/>
</svg>
