<svg width="27" height="21" viewBox="0 0 27 21" fill="none" xmlns="http://www.w3.org/2000/svg">
<path d="M26.4113 2.51594C25.4373 2.93655 24.4074 3.21459 23.3534 3.34143C24.4653 2.68016 25.2986 1.63987 25.6986 0.41352C24.6537 1.03272 23.5099 1.46898 22.3168 1.70335C21.5194 0.842481 20.4574 0.269441 19.2976 0.0741029C18.1377 -0.121235 16.9455 0.0721772 15.908 0.624006C14.8704 1.17584 14.0462 2.05487 13.5646 3.12324C13.083 4.19161 12.9712 5.38889 13.2469 6.52731C11.1341 6.42093 9.06747 5.87331 7.18119 4.92C5.29491 3.9667 3.63119 2.62905 2.29811 0.993942C1.83053 1.80675 1.58484 2.72724 1.58547 3.66389C1.58381 4.53373 1.79824 5.39048 2.20968 6.15786C2.62112 6.92524 3.21679 7.57944 3.94366 8.06221C3.09883 8.03932 2.27204 7.81366 1.53364 7.40439V7.46889C1.53997 8.68763 1.96899 9.8668 2.74813 10.8069C3.52726 11.747 4.60869 12.3904 5.80948 12.6282C5.34724 12.7682 4.86734 12.8421 4.3842 12.8475C4.04976 12.8436 3.71616 12.8134 3.3865 12.7572C3.72845 13.8056 4.39019 14.7218 5.27963 15.3783C6.16907 16.0349 7.24198 16.3991 8.34907 16.4203C6.47962 17.8846 4.17155 18.6838 1.79278 18.6904C1.35967 18.6918 0.926903 18.666 0.49707 18.613C2.92579 20.174 5.75611 21.0027 8.64708 20.9992C10.6421 21.0198 12.6212 20.6445 14.4689 19.8952C16.3165 19.1459 17.9957 18.0376 19.4082 16.6351C20.8208 15.2325 21.9384 13.5638 22.6959 11.7265C23.4534 9.88915 23.8354 7.91997 23.8198 5.93399C23.8198 5.71472 23.8198 5.48255 23.8198 5.25038C24.8366 4.49558 25.7135 3.57028 26.4113 2.51594Z" fill="white"/>
</svg>
