<svg width="31" height="29" viewBox="0 0 31 29" fill="none" xmlns="http://www.w3.org/2000/svg">
<rect opacity="0.2" x="0.503418" width="29.901" height="29" rx="5" fill="white"/>
<path d="M28.4113 6.51594C27.4373 6.93655 26.4074 7.21459 25.3534 7.34143C26.4653 6.68016 27.2986 5.63987 27.6986 4.41352C26.6537 5.03272 25.5099 5.46898 24.3168 5.70335C23.5194 4.84248 22.4574 4.26944 21.2976 4.0741C20.1377 3.87876 18.9455 4.07218 17.908 4.62401C16.8704 5.17583 16.0462 6.05487 15.5646 7.12324C15.083 8.19161 14.9712 9.38889 15.2469 10.5273C13.1341 10.4209 11.0675 9.87331 9.18119 8.92C7.29491 7.9667 5.63119 6.62905 4.29811 4.99394C3.83053 5.80675 3.58484 6.72724 3.58547 7.66389C3.58381 8.53373 3.79824 9.39048 4.20968 10.1579C4.62112 10.9252 5.21679 11.5794 5.94366 12.0622C5.09883 12.0393 4.27204 11.8137 3.53364 11.4044V11.4689C3.53997 12.6876 3.96899 13.8668 4.74813 14.8069C5.52726 15.747 6.60869 16.3904 7.80948 16.6282C7.34724 16.7682 6.86734 16.8421 6.3842 16.8475C6.04976 16.8436 5.71616 16.8134 5.3865 16.7572C5.72845 17.8056 6.39019 18.7218 7.27963 19.3783C8.16907 20.0349 9.24199 20.3991 10.3491 20.4203C8.47962 21.8846 6.17155 22.6838 3.79278 22.6904C3.35967 22.6918 2.9269 22.666 2.49707 22.613C4.92579 24.174 7.75611 25.0027 10.6471 24.9992C12.6421 25.0198 14.6212 24.6445 16.4689 23.8952C18.3165 23.1459 19.9957 22.0376 21.4082 20.6351C22.8208 19.2325 23.9384 17.5638 24.6959 15.7265C25.4534 13.8891 25.8354 11.92 25.8198 9.93399C25.8198 9.71472 25.8198 9.48255 25.8198 9.25038C26.8366 8.49558 27.7135 7.57028 28.4113 6.51594V6.51594Z" fill="white"/>
</svg>
